<svg fill="#FFFFFF" xmlns="http://www.w3.org/2000/svg" xmlns:xlink="http://www.w3.org/1999/xlink" version="1.1" x="0px" y="0px" viewBox="0 0 16 16" style="enable-background:new 0 0 16 16;" xml:space="preserve"><g><path d="M12,14H2V4h6V3H2C1.448,3,1,3.448,1,4v10c0,0.552,0.448,1,1,1h10c0.552,0,1-0.448,1-1V8h-1V14z"></path><polygon points="5,11.016 7.105,11.016 12.207,5.914 10.086,3.793 5,8.879  "></polygon><path d="M13.707,3L13,2.293c-0.391-0.391-1.024-0.391-1.414,0l-0.793,0.793l2.121,2.121l0.793-0.793   C14.098,4.023,14.098,3.39,13.707,3z"></path></g></svg>